<svg xmlns="http://www.w3.org/2000/svg" viewBox="0 0 200 50">
  <style>
    .poly-st0{fill:#02426A}
    .kth-st0{fill:#000061}
  </style>
  <g transform="translate(22.3, 0) scale(0.0594)">
    <path class="poly-st0" d="M335.3,246c-13.2,15.6-30.2,35.7-45.4,54.5c-59.1-73-114-131.6-150.4-158.8c19,43.6,65.7,110.7,127,188.7c-31.8,41.2-95,123.1-127.1,192.7c43.8-34.6,102.7-102.9,150.5-163.3c58.9,73.2,115,135.8,151.2,162.9c-18.9-43.3-66.9-115-127.8-192.8c23.9-30.7,32.6-41.6,56.1-74.7c25.5-36,66.8-87.5,88.9-76.7C425.2,159.7,378.1,195.6,335.3,246"/>
    <path class="poly-st0" d="M217.1,309.5c-0.7-0.5-1.5-0.7-2.6-0.7c-1.3,0-2.8,0.4-4.4,1.3c-1.6,0.9-3.3,2.2-5,3.8c-1.7,1.6-3.5,3.5-5.3,5.7c-1.8,2.2-3.5,4.6-5.2,7.2c-1.6,2.6-3.2,5.3-4.7,8.1c-1.5,2.9-2.7,5.7-3.8,8.7c-1.1,2.9-1.9,5.8-2.6,8.7c-0.4,2.1-0.7,4.1-0.9,6c-1.7,1.6-3.2,2.9-4.5,4.1c-1.8,1.5-3.3,2.8-4.6,3.8c-1.4,1-2.2,1.6-3.3,2.2l0.6,2.4c1.1-0.5,2.6-1.6,4-2.7c1.3-1,2.8-2.3,4.6-3.9c0.9-0.8,1.9-1.7,3.1-2.7c0.1,1.7,0.3,3.2,0.7,4.5c0.5,1.5,1.2,2.8,2,3.7c0.8,1,1.8,1.7,2.9,2.1c1.1,0.5,2.2,0.7,3.4,0.7c1.4,0,2.8-0.4,4.2-1.1c1.4-0.7,2.7-1.6,3.9-2.8c1-0.9,2-2,2.9-3.1l-1.5-1.6c-0.2,0.2-0.4,0.5-0.6,0.7c-0.9,1-1.9,2-2.9,2.8c-1,0.8-2,1.5-3,2c-1,0.5-2,0.8-3,0.8c-1.5,0-2.6-0.6-3.5-1.8c-0.8-1.2-1.3-3.1-1.4-5.6c0-0.8,0-1.8,0-2.7c0-1,0.2-1.9,0.4-2.9c0.8-0.7,1.5-1.6,2.3-2.4c0.3-0.3,0.6-0.6,0.9-0.9c0.6-0.6,1.3-1.2,2-2c0.8-0.8,1.7-1.8,2.8-3c1.1-1.2,2.4-2.7,4-4.5c1.5-1.8,3.3-4,5.4-6.6c1-1.3,2.1-2.7,3.2-4.2c1.1-1.5,2.1-3.1,3.1-4.7c1-1.6,1.9-3.2,2.7-4.8c0.8-1.6,1.6-3.2,2.2-4.6c0.6-1.5,1.1-2.8,1.5-4.1c0.4-1.3,0.5-2.3,0.5-3.2C218.2,310.9,217.8,310,217.1,309.5"/>
  </g>
  <line x1="100" y1="10" x2="100" y2="40" stroke="#1F407A" stroke-width="0.5" opacity="0.3"/>
  <g transform="translate(127.7, 0) scale(0.0996)">
    <path class="kth-st0" d="M234.5 481.4c4.8-5.4 9.9-11.2 13.5-14.8 7.1-7.1 14.4-7 14.4-7s-8.4-4.1-17.2 4.7c-2.4 2.4-7.7 8.4-13.1 14.5-2-2.2-3.9-4.4-5.7-6.4 2-2.2 3.9-4.2 5.4-5.8 7.1-7.1 14.4-7 14.4-7s-8.4-4.1-17.2 4.7c-1.1 1.1-2.9 3.1-5 5.4-2.1-2.4-3.9-4.3-5-5.4-8.8-8.8-17.2-4.7-17.2-4.7s7.3-.1 14.4 7c1.6 1.6 3.4 3.6 5.4 5.8-1.8 2-3.8 4.2-5.7 6.4-5.4-6.1-10.8-12.1-13.1-14.5-8.8-8.8-17.2-4.7-17.2-4.7s7.3-.1 14.4 7c3.6 3.6 8.7 9.4 13.5 14.8-4.5 5.1-8.9 9.9-11.3 12.3-5.9 5.9-12.8 6.4-12.8 6.4s7.4 4.3 17.5-6c1.9-1.9 5.2-5.7 9-10 2.1 2.3 4 4.5 5.6 6.3-1.2 1.3-2.3 2.5-3.1 3.3-5.9 5.9-12.8 6.4-12.8 6.4s7.4 4.3 17.5-6l.9-.9c.3.3.6.7.9.9 10.1 10.3 17.5 6 17.5 6s-6.9-.5-12.8-6.4c-.8-.8-1.9-2-3.1-3.3 1.6-1.8 3.6-4 5.6-6.3 3.8 4.3 7.1 8.1 9 10 10.1 10.3 17.5 6 17.5 6s-6.9-.5-12.8-6.4c-2.5-2.4-6.8-7.2-11.3-12.3m-10.5 6.4c-1.8-1.9-3.7-4.1-5.7-6.3 1.9-2.1 3.8-4.3 5.7-6.4 1.9 2.1 3.8 4.3 5.7 6.4q-3 3.3-5.7 6.3"/>
  </g>
</svg>