<?xml version="1.0" encoding="UTF-8" standalone="no"?>
<svg
   id="Layer_1"
   data-name="Layer 1"
   viewBox="0 0 644.13 101.32"
   version="1.1"
   sodipodi:docname="CBME_MKT_GDE_LOG_we_are_wienerberger.svg"
   width="644.13"
   height="101.32"
   inkscape:version="1.2 (dc2aedaf03, 2022-05-15)"
   xmlns:inkscape="http://www.inkscape.org/namespaces/inkscape"
   xmlns:sodipodi="http://sodipodi.sourceforge.net/DTD/sodipodi-0.dtd"
   xmlns="http://www.w3.org/2000/svg"
   xmlns:svg="http://www.w3.org/2000/svg">
  <sodipodi:namedview
     id="namedview199"
     pagecolor="#505050"
     bordercolor="#eeeeee"
     borderopacity="1"
     inkscape:showpageshadow="0"
     inkscape:pageopacity="0"
     inkscape:pagecheckerboard="0"
     inkscape:deskcolor="#505050"
     showgrid="false"
     inkscape:zoom="1.3859071"
     inkscape:cx="326.50097"
     inkscape:cy="53.033858"
     inkscape:window-width="1920"
     inkscape:window-height="1001"
     inkscape:window-x="-9"
     inkscape:window-y="-9"
     inkscape:window-maximized="1"
     inkscape:current-layer="Layer_1" />
  <defs
     id="defs158">
    <style
       id="style156">.cls-1{fill:#1b1b19;}</style>
  </defs>
  <title
     id="title160">Artboard 1</title>
  <path
     class="cls-1"
     d="m 639.26,22.99 c -6,0 -10.85,4.56 -13.38,12.28 l -0.91,-11 H 611.92 V 76 h 14.91 V 47.32 a 11.85,11.85 0 0 1 11.7,-12.11 15.21,15.21 0 0 1 4.87,0.82 l 0.73,-12.24 a 16.42,16.42 0 0 0 -4.87,-0.82"
     id="path162" />
  <path
     class="cls-1"
     d="m 602.81,46.79 c 0,-14.49 -9.53,-23.81 -24.13,-23.81 -16,0 -26.72,11.08 -26.72,27.64 0,16.26 10.36,26.62 26.62,26.62 a 39.6,39.6 0 0 0 21.12,-6 l -3,-9 a 28.08,28.08 0 0 1 -14.81,4.25 c -8.6,0 -13.79,-4.35 -15,-12.22 H 602 a 35.6,35.6 0 0 0 0.81,-7.48 z m -36,-2 c 1.42,-7 5.54,-11.08 11.58,-11.08 v 0 c 6.17,0 10.34,4.3 10.65,11.08 z"
     id="path164" />
  <path
     class="cls-1"
     d="m 530.22,24.23 -0.55,6.65 c -3.55,-5 -9.35,-7.89 -16.23,-7.89 -14.39,0 -25.26,11.9 -25.26,27.64 0,15.12 9.94,26.62 23,26.62 a 20.26,20.26 0 0 0 16.77,-8.82 v 5.3 c 0,10.56 -6,16.57 -16.88,16.57 a 40.5,40.5 0 0 1 -18.13,-4.51 l -2.17,10.46 a 55.26,55.26 0 0 0 22.67,5.07 c 18.23,0 29.41,-11 29.41,-28.89 v -48.2 z m -1.76,26.2 c 0,9.11 -5.39,15.74 -12.84,15.74 -7.45,0 -12.22,-6.38 -12.22,-16.05 0,-9.94 5,-16.57 12.53,-16.57 7.35,0 12.53,6.11 12.53,15 z"
     id="path166" />
  <path
     class="cls-1"
     d="m 480.83,22.99 c -6,0 -10.85,4.56 -13.38,12.28 l -0.91,-11 h -13 V 76 H 468.4 V 47.32 a 11.85,11.85 0 0 1 11.7,-12.11 15.21,15.21 0 0 1 4.87,0.82 l 0.72,-12.24 a 16.36,16.36 0 0 0 -4.86,-0.82"
     id="path168" />
  <path
     class="cls-1"
     d="m 444.38,46.79 c 0,-14.49 -9.53,-23.81 -24.13,-23.81 -16,0 -26.72,11.08 -26.72,27.64 0,16.26 10.36,26.62 26.62,26.62 a 39.63,39.63 0 0 0 21.12,-6 l -3,-9 a 28.11,28.11 0 0 1 -14.81,4.25 c -8.6,0 -13.79,-4.35 -15,-12.22 h 35.06 a 35.6,35.6 0 0 0 0.86,-7.48 z m -36,-2 c 1.41,-7 5.54,-11.08 11.58,-11.08 v 0 c 6.17,0 10.33,4.3 10.64,11.08 z"
     id="path170" />
  <path
     class="cls-1"
     d="M 363.81,22.99 A 20.28,20.28 0 0 0 347,31.79 V 0 h -14.87 v 76 h 12.63 l 0.55,-6.65 c 3.55,5 9.35,7.9 16.23,7.9 14.39,0 25.26,-11.91 25.26,-27.65 0,-15.12 -9.94,-26.61 -22.99,-26.61 z m -4.76,43.7 c -7.35,0 -12.53,-6.11 -12.53,-15 v -1.9 c 0,-9.12 5.38,-15.74 12.84,-15.74 7.46,0 12.22,6.42 12.22,16 0,10.01 -4.97,16.64 -12.53,16.64 z"
     id="path172" />
  <path
     class="cls-1"
     d="m 320.74,22.99 c -6,0 -10.85,4.56 -13.38,12.28 l -0.91,-11 H 293.4 V 76 h 14.91 V 47.32 A 11.85,11.85 0 0 1 320,35.21 a 15.21,15.21 0 0 1 4.87,0.82 l 0.73,-12.24 a 16.36,16.36 0 0 0 -4.86,-0.82"
     id="path174" />
  <path
     class="cls-1"
     d="m 284.29,46.79 c 0,-14.49 -9.53,-23.81 -24.13,-23.81 -16,0 -26.72,11.08 -26.72,27.64 0,16.26 10.36,26.62 26.62,26.62 a 39.63,39.63 0 0 0 21.12,-6 l -3,-9 a 28.08,28.08 0 0 1 -14.81,4.25 c -8.6,0 -13.79,-4.35 -15,-12.22 h 35.06 a 35.6,35.6 0 0 0 0.86,-7.48 z m -36,-2 c 1.41,-7 5.54,-11.08 11.58,-11.08 v 0 c 6.17,0 10.33,4.3 10.64,11.08 z"
     id="path176" />
  <path
     class="cls-1"
     d="m 205.79,22.99 c -8.08,0 -14.16,3.74 -16.74,10.34 l -0.76,-9.1 H 175.45 V 76 h 14.92 V 44.52 a 10.85,10.85 0 0 1 10.45,-10.45 c 5.18,0 9,4.35 9,10 V 76 h 14.91 V 41.73 c 0,-11.18 -7.66,-18.74 -19,-18.74"
     id="path178" />
  <path
     class="cls-1"
     d="m 166.34,46.79 c 0,-14.49 -9.52,-23.81 -24.13,-23.81 -16,0 -26.71,11.08 -26.71,27.64 0,16.26 10.35,26.62 26.61,26.62 a 39.66,39.66 0 0 0 21.13,-6 l -3,-9 a 28.08,28.08 0 0 1 -14.81,4.25 c -8.59,0 -13.79,-4.35 -15,-12.22 h 35.05 a 35.6,35.6 0 0 0 0.86,-7.48 z m -36,-2 c 1.41,-7 5.53,-11.08 11.57,-11.08 v 0 c 6.18,0 10.34,4.3 10.65,11.08 z"
     id="path180" />
  <rect
     class="cls-1"
     x="91.369995"
     y="24.230001"
     width="14.91"
     height="51.779999"
     id="rect182" />
  <path
     class="cls-1"
     d="m 98.83,16.15 a 8.13,8.13 0 0 0 8.17,-8.18 8.19,8.19 0 0 0 -16.37,0 8.13,8.13 0 0 0 8.19,8.18"
     id="path184" />
  <path
     class="cls-1"
     d="m 70,24.23 -6.59,25.16 c -1.35,5.14 -2.56,10.2 -3.79,15.92 -1,-5.44 -2.51,-12.33 -3.56,-16.23 L 49.43,24.23 H 36 l -6.66,25.16 c -1.34,5.14 -2.55,10.2 -3.79,15.92 -1,-5.44 -2.5,-12.33 -3.56,-16.23 L 15.36,24.23 H 0 L 16.3,76 H 33 l 5.14,-18.21 c 1.58,-5.64 2.82,-10.61 3.89,-15.67 0.91,5.6 2.14,11.56 3.57,17.12 L 50,76 H 66.88 L 84.69,24.23 Z"
     id="path186" />
</svg>
